<svg xmlns="http://www.w3.org/2000/svg" width="209.01" height="274.47" viewBox="0 0 55.3 72.62"><path fill-rule="evenodd" d="M18.16 29.4c-1.18-.53-3.26-6.91-3.26-6.91 1.04-.43 1.14.01 4.71-1.59.54-.48.56-1.36.56-1.36-.83.87-5.01 2.23-6.56 2.34.71.32 2.55 6.56 2.83 6.77.36.5 1.72.75 1.72.75z"/><path stroke="#333455" stroke-miterlimit="3.86" stroke-width=".14" d="M18.16 29.4c-1.18-.53-3.26-6.91-3.26-6.91 1.04-.43 1.14.01 4.71-1.59.54-.48.56-1.36.56-1.36-.83.87-5.01 2.23-6.56 2.34.71.32 2.55 6.56 2.83 6.77.36.5 1.72.75 1.72.75z"/><path fill-rule="evenodd" d="M34.56 21.74c.57.6 1.47 7.45 1.76 7.66h.43l1.93-5.09s.97 4.51 1.18 4.84c.32.11.93.25.93.25-.78-.69-1.68-6.45-1.68-6.45l-.72.04-1.64 5.11-1.18-5.45c.82-.51 1.87-.36 4.72-1.63.54-.48.54-1.58.54-1.58-.57 1.33-5.74 2.4-6.27 2.3z"/><path stroke="#333455" stroke-miterlimit="3.86" stroke-width=".14" d="M34.56 21.74c.57.6 1.47 7.45 1.76 7.66h.43l1.93-5.09s.97 4.51 1.18 4.84c.32.11.93.25.93.25-.78-.69-1.68-6.45-1.68-6.45l-.72.04-1.64 5.11-1.18-5.45c.82-.51 1.87-.36 4.72-1.63.54-.48.54-1.58.54-1.58-.57 1.33-5.74 2.4-6.27 2.3z"/><path fill-rule="evenodd" d="M45.05 22.01c.56.57 1.11 7.19 1.39 7.39.24 0 .68.14.68.14l1.03-4.71s.76 4.41.97 4.71h.49c.8-3.84.97-5.62 1.73-6.15-.17-.07-.62.03-.86.3-.38.4-1.04 4.21-1.04 4.21l-.94-4.68h-.62l-1 4.75s-.8-5.23-.86-5.31c.82-.51 1.86-.36 4.73-1.63.54-.49.54-1.59.54-1.59-.58 1.34-5.75 2.56-6.28 2.45z"/><path stroke="#333455" stroke-miterlimit="3.86" stroke-width=".14" d="M45.05 22.01c.56.57 1.11 7.19 1.39 7.39.24 0 .68.14.68.14l1.03-4.71s.76 4.41.97 4.71h.49c.8-3.84.97-5.62 1.73-6.15-.17-.07-.62.03-.86.3-.38.4-1.04 4.21-1.04 4.21l-.94-4.68h-.62l-1 4.75s-.8-5.23-.86-5.31c.82-.51 1.86-.36 4.73-1.63.54-.49.54-1.59.54-1.59-.58 1.34-5.75 2.56-6.28 2.45z"/><path fill-rule="evenodd" d="M13.46 38.68c.74.49 3 7.36 3.34 7.51.27.3.51.35 1.12.36-1.09-1.15-1.4-2.42-3.19-6.88 1.69-.79 5.26-1.41 5.26-1.41v-.9s-5.75-1.62-6.13-2.35c0 .35 0 .93.31 1.26.48.18 4.34 1.49 4.34 1.49s-4.18 1.1-5.05.92z"/><path stroke="#333455" stroke-miterlimit="3.86" stroke-width=".14" d="M13.46 38.68c.74.49 3 7.36 3.34 7.51.27.3.51.35 1.12.36-1.09-1.15-1.4-2.42-3.19-6.88 1.69-.79 5.26-1.41 5.26-1.41v-.9s-5.75-1.62-6.13-2.35c0 .35 0 .93.31 1.26.48.18 4.34 1.49 4.34 1.49s-4.18 1.1-5.05.92z"/><path fill-rule="evenodd" d="M23.7 38.92c.72.32 2.65 7.58 2.94 7.8h.54s2.41-6.08 2.94-6.55c-.5.04-.61.04-.94.32l-2.22 5.23-2.04-5.93c1.6-.82 5.45-1.49 5.45-1.49v-.9s-5.75-1.64-6.13-2.36c0 .35 0 .93.3 1.25.49.19 4.34 1.51 4.34 1.51s-4.57 1.3-5.18 1.12z"/><path stroke="#333455" stroke-miterlimit="3.86" stroke-width=".14" d="M23.7 38.92c.72.32 2.65 7.58 2.94 7.8h.54s2.41-6.08 2.94-6.55c-.5.04-.61.04-.94.32l-2.22 5.23-2.04-5.93c1.6-.82 5.45-1.49 5.45-1.49v-.9s-5.75-1.64-6.13-2.36c0 .35 0 .93.3 1.25.49.19 4.34 1.51 4.34 1.51s-4.57 1.3-5.18 1.12z"/><path fill-rule="evenodd" d="M34.23 38.55c.57.62 1.54 7.95 1.83 8.17h.43l1.93-5.08s.98 4.5 1.19 4.83c.32.1.93.25.93.25-.78-.68-1.68-6.44-1.68-6.44l-.73.03-1.64 5.12-1.17-5.82c1.64-.81 5.37-1.47 5.37-1.47v-.89s-5.76-1.63-6.14-2.35c0 .35 0 .92.3 1.25.49.19 4.36 1.49 4.36 1.49s-4.12 1.17-4.98.91z"/><path stroke="#333455" stroke-miterlimit="3.86" stroke-width=".14" d="M34.23 38.55c.57.62 1.54 7.95 1.83 8.17h.43l1.93-5.08s.98 4.5 1.19 4.83c.32.1.93.25.93.25-.78-.68-1.68-6.44-1.68-6.44l-.73.03-1.64 5.12-1.17-5.82c1.64-.81 5.37-1.47 5.37-1.47v-.89s-5.76-1.63-6.14-2.35c0 .35 0 .92.3 1.25.49.19 4.36 1.49 4.36 1.49s-4.12 1.17-4.98.91z"/><path fill-rule="evenodd" d="M44.9 38.7c.55.57 1.38 7.82 1.66 8.02h.41L48.01 42s.76 4.42.97 4.72h.48c.79-3.85.97-5.63 1.74-6.16-.19-.07-.63.03-.88.3-.38.4-1.03 4.22-1.03 4.22l-.94-4.69h-.62l-1 4.75-.86-5.54c1.57-.61 5.47-1.28 5.47-1.28v-.89s-5.76-1.64-6.14-2.36c0 .35 0 .92.3 1.25.49.19 4.35 1.5 4.35 1.5s-4.02.99-4.95.88z"/><path stroke="#333455" stroke-miterlimit="3.86" stroke-width=".14" d="M44.9 38.7c.55.57 1.38 7.82 1.66 8.02h.41L48.01 42s.76 4.42.97 4.72h.48c.79-3.85.97-5.63 1.74-6.16-.19-.07-.63.03-.88.3-.38.4-1.03 4.22-1.03 4.22l-.94-4.69h-.62l-1 4.75-.86-5.54c1.57-.61 5.47-1.28 5.47-1.28v-.89s-5.76-1.64-6.14-2.36c0 .35 0 .92.3 1.25.49.19 4.35 1.5 4.35 1.5s-4.02.99-4.95.88z"/><path fill-rule="evenodd" d="M14.7 57.69c1.43-.7 4.97-1.28 4.97-1.28v-.74l-3.95-1.18 4.09-.83c.57-.33.57-1.09.57-1.09-.48.67-5.82 1.38-6 1.71v.5l3.67 1.2s-3.8 1.15-4.52 1.18c.74.48 2.81 6.93 3.16 7.08.26.28.51.34 1.14.36-1.12-1.13-1.27-2.35-3.13-6.91z"/><path stroke="#333455" stroke-miterlimit="3.86" stroke-width=".14" d="M14.7 57.69c1.43-.7 4.97-1.28 4.97-1.28v-.74l-3.95-1.18 4.09-.83c.57-.33.57-1.09.57-1.09-.48.67-5.82 1.38-6 1.71v.5l3.67 1.2s-3.8 1.15-4.52 1.18c.74.48 2.81 6.93 3.16 7.08.26.28.51.34 1.14.36-1.12-1.13-1.27-2.35-3.13-6.91z"/><path fill-rule="evenodd" d="M24.97 57.95a28.31 28.31 0 0 1 4.79-1.19v-.74l-3.93-1.18 4.08-.83c.57-.34.57-1.08.57-1.08-.49.66-5.83 1.37-6 1.7v.5l3.67 1.2s-3.34.82-4.51.9c.71.32 2.65 7.3 2.94 7.52h.53s2.4-6.09 2.94-6.56c-.5.04-.61.04-.93.32l-2.22 5.24-1.98-5.92z"/><path stroke="#333455" stroke-miterlimit="3.86" stroke-width=".14" d="M24.97 57.95a28.31 28.31 0 0 1 4.79-1.19v-.74l-3.93-1.18 4.08-.83c.57-.34.57-1.08.57-1.08-.49.66-5.83 1.37-6 1.7v.5l3.67 1.2s-3.34.82-4.51.9c.71.32 2.65 7.3 2.94 7.52h.53s2.4-6.09 2.94-6.56c-.5.04-.61.04-.93.32l-2.22 5.24-1.98-5.92z"/><path fill-rule="evenodd" d="M34.37 56.83c.58.61 1.4 7.56 1.69 7.77h.43l1.93-5.09s.98 4.52 1.19 4.84c.32.11.93.25.93.25-.78-.68-1.68-6.44-1.68-6.44l-.73.03-1.64 5.13-1.13-5.56a28.07 28.07 0 0 1 4.76-1.18v-.74l-3.95-1.18 4.09-.83c.57-.33.57-1.08.57-1.08-.49.66-5.83 1.37-6 1.7v.5l3.66 1.2s-3.11.79-4.12.68z"/><path stroke="#333455" stroke-miterlimit="3.86" stroke-width=".14" d="M34.37 56.83c.58.61 1.4 7.56 1.69 7.77h.43l1.93-5.09s.98 4.52 1.19 4.84c.32.11.93.25.93.25-.78-.68-1.68-6.44-1.68-6.44l-.73.03-1.64 5.13-1.13-5.56a28.07 28.07 0 0 1 4.76-1.18v-.74l-3.95-1.18 4.09-.83c.57-.33.57-1.08.57-1.08-.49.66-5.83 1.37-6 1.7v.5l3.66 1.2s-3.11.79-4.12.68z"/><path fill-rule="evenodd" d="M45.7 57.78c1.53-.67 4.8-1.2 4.8-1.2v-.74l-3.94-1.18 4.08-.83c.57-.33.57-1.08.57-1.08-.48.66-5.82 1.37-6 1.7v.5l3.68 1.2s-3.24.82-4.31.72c.55.57 1.42 7.53 1.69 7.73h.42l1.03-4.72s.76 4.42.98 4.72h.48c.8-3.85.97-5.63 1.73-6.16-.17-.07-.62.03-.86.3-.38.4-1.04 4.23-1.04 4.23l-.94-4.7h-.62l-1 4.76s-.74-5.33-.8-5.41z"/><path stroke="#333455" stroke-miterlimit="3.86" stroke-width=".14" d="M45.7 57.78c1.53-.67 4.8-1.2 4.8-1.2v-.74l-3.94-1.18 4.08-.83c.57-.33.57-1.08.57-1.08-.48.66-5.82 1.37-6 1.7v.5l3.68 1.2s-3.24.82-4.31.72c.55.57 1.42 7.53 1.69 7.73h.42l1.03-4.72s.76 4.42.98 4.72h.48c.8-3.85.97-5.63 1.73-6.16-.17-.07-.62.03-.86.3-.38.4-1.04 4.23-1.04 4.23l-.94-4.7h-.62l-1 4.76s-.74-5.33-.8-5.41z"/><path fill-rule="evenodd" d="M4.72 8.47c0-.49.47-.9.65-.9.14 0 .64.41.64.9 0 .5-.28.9-.64.9s-.65-.4-.65-.9zm.9-1.8-1.5-1.14-.36.72c.16.06.37.6.86.93-.32.39-.5.75-.47 1.44.06 1.04.73 1.33 1.4 1.33.66 0 1.14-.26 1.29-1.33.09-.66-.27-1.27-.65-1.48.56-.37 1.09-.93 1.12-.89.07-.18.33-.18.11-.86-.22.39-1.8 1.28-1.8 1.28z"/><text x="5.21" y="15.02" stroke-width=".33" font-family="DejaVuSans" font-size="2.71" font-weight="400" style="-inkscape-font-specification:DejaVuSans" transform="scale(.948 1.055)"><tspan x="5.21" y="15.02">0</tspan></text><text x="-244.93" y="216.76" stroke-width=".33" font-family="DejaVuSans" font-size="2.71" font-weight="400" style="-inkscape-font-specification:DejaVuSans" transform="matrix(.948 0 0 1.055 248.31 -212.82)"><tspan x="-244.93" y="216.76">1</tspan></text><text x="-233.92" y="216.76" stroke-width=".33" font-family="DejaVuSans" font-size="2.71" font-weight="400" style="-inkscape-font-specification:DejaVuSans" transform="matrix(.948 0 0 1.055 248.31 -212.82)"><tspan x="-233.92" y="216.76">2</tspan></text><text x="-222.72" y="216.76" stroke-width=".33" font-family="DejaVuSans" font-size="2.71" font-weight="400" style="-inkscape-font-specification:DejaVuSans" transform="matrix(.948 0 0 1.055 248.31 -212.82)"><tspan x="-222.72" y="216.76">3</tspan></text><text x="-211.7" y="216.76" stroke-width=".33" font-family="DejaVuSans" font-size="2.71" font-weight="400" style="-inkscape-font-specification:DejaVuSans" transform="matrix(.948 0 0 1.055 248.31 -212.82)"><tspan x="-211.7" y="216.76">4</tspan></text><text x="-256.74" y="233.11" stroke-width=".33" font-family="DejaVuSans" font-size="2.71" font-weight="400" style="-inkscape-font-specification:DejaVuSans" transform="matrix(.948 0 0 1.055 248.31 -212.82)"><tspan x="-256.74" y="233.11">5</tspan></text><text x="-244.93" y="233.11" stroke-width=".33" font-family="DejaVuSans" font-size="2.71" font-weight="400" style="-inkscape-font-specification:DejaVuSans" transform="matrix(.948 0 0 1.055 248.31 -212.82)"><tspan x="-244.93" y="233.11">6</tspan></text><text x="-233.92" y="233.11" stroke-width=".33" font-family="DejaVuSans" font-size="2.71" font-weight="400" style="-inkscape-font-specification:DejaVuSans" transform="matrix(.948 0 0 1.055 248.31 -212.82)"><tspan x="-233.92" y="233.11">7</tspan></text><text x="-222.72" y="233.11" stroke-width=".33" font-family="DejaVuSans" font-size="2.71" font-weight="400" style="-inkscape-font-specification:DejaVuSans" transform="matrix(.948 0 0 1.055 248.31 -212.82)"><tspan x="-222.72" y="233.11">8</tspan></text><text x="-211.7" y="233.11" stroke-width=".33" font-family="DejaVuSans" font-size="2.71" font-weight="400" style="-inkscape-font-specification:DejaVuSans" transform="matrix(.948 0 0 1.055 248.31 -212.82)"><tspan x="-211.7" y="233.11">9</tspan></text><text x="-257.59" y="249.49" stroke-width=".33" font-family="DejaVuSans" font-size="2.71" font-weight="400" style="-inkscape-font-specification:DejaVuSans" transform="matrix(.948 0 0 1.055 248.31 -212.82)"><tspan x="-257.59" y="249.49">10</tspan></text><text x="-245.8" y="249.49" stroke-width=".33" font-family="DejaVuSans" font-size="2.71" font-weight="400" style="-inkscape-font-specification:DejaVuSans" transform="matrix(.948 0 0 1.055 248.31 -212.82)"><tspan x="-245.8" y="249.49">11</tspan></text><text x="-234.77" y="249.49" stroke-width=".33" font-family="DejaVuSans" font-size="2.71" font-weight="400" style="-inkscape-font-specification:DejaVuSans" transform="matrix(.948 0 0 1.055 248.31 -212.82)"><tspan x="-234.77" y="249.49">12</tspan></text><text x="-223.58" y="249.49" stroke-width=".33" font-family="DejaVuSans" font-size="2.71" font-weight="400" style="-inkscape-font-specification:DejaVuSans" transform="matrix(.948 0 0 1.055 248.31 -212.82)"><tspan x="-223.58" y="249.49">13</tspan></text><text x="-212.56" y="249.49" stroke-width=".33" font-family="DejaVuSans" font-size="2.71" font-weight="400" style="-inkscape-font-specification:DejaVuSans" transform="matrix(.948 0 0 1.055 248.31 -212.82)"><tspan x="-212.56" y="249.49">14</tspan></text><text x="-257.59" y="265.92" stroke-width=".33" font-family="DejaVuSans" font-size="2.71" font-weight="400" style="-inkscape-font-specification:DejaVuSans" transform="matrix(.948 0 0 1.055 248.31 -212.82)"><tspan x="-257.59" y="266.92">15</tspan></text><text x="-245.8" y="265.92" stroke-width=".33" font-family="DejaVuSans" font-size="2.71" font-weight="400" style="-inkscape-font-specification:DejaVuSans" transform="matrix(.948 0 0 1.055 248.31 -212.82)"><tspan x="-245.8" y="266.92">16</tspan></text><text x="-234.77" y="265.92" stroke-width=".33" font-family="DejaVuSans" font-size="2.71" font-weight="400" style="-inkscape-font-specification:DejaVuSans" transform="matrix(.948 0 0 1.055 248.31 -212.82)"><tspan x="-234.77" y="266.92">17</tspan></text><text x="-223.58" y="265.92" stroke-width=".33" font-family="DejaVuSans" font-size="2.71" font-weight="400" style="-inkscape-font-specification:DejaVuSans" transform="matrix(.948 0 0 1.055 248.31 -212.82)"><tspan x="-223.58" y="266.92">18</tspan></text><path fill-rule="evenodd" d="M3.33 23.79c1-1.24 1.75-.82 5.33-2.42.53-.48.55-1.36.55-1.36-.47.85-5.26 1.97-5.43 2.38-.24.29-.33.59-.45 1.4z"/><path stroke="#333455" stroke-miterlimit="3.86" stroke-width=".14" d="M3.33 23.79c1-1.24 1.75-.82 5.33-2.42.53-.48.55-1.36.55-1.36-.47.85-5.26 1.97-5.43 2.38-.24.29-.33.59-.45 1.4z"/><path fill-rule="evenodd" d="M25.28 22.49c1.04-.43 1.13.01 4.72-1.59.54-.48.55-1.36.55-1.36-.82.87-5.02 2.23-6.56 2.34.72.32 2.65 7.31 2.94 7.52h.53s2.41-6.09 2.95-6.56c-.5.04-.61.04-.93.33l-2.23 5.23z"/><path stroke="#333455" stroke-miterlimit="3.86" stroke-width=".14" d="M25.28 22.49c1.04-.43 1.13.01 4.72-1.59.54-.48.55-1.36.55-1.36-.82.87-5.02 2.23-6.56 2.34.72.32 2.65 7.31 2.94 7.52h.53s2.41-6.09 2.95-6.56c-.5.04-.61.04-.93.33l-2.23 5.23z"/><path fill-rule="evenodd" d="M2.83 58.67c.27-.9 5.56-1.77 5.56-1.77v-.74l-3.93-1.18 4.07-.83c.57-.33.57-1.08.57-1.08-.48.66-5.82 1.37-6 1.7v.5l3.68 1.2s-3.42.96-3.68 1.21c-.27.26-.27.99-.27.99z"/><path stroke="#333455" stroke-miterlimit="3.86" stroke-width=".14" d="M2.83 58.67c.27-.9 5.56-1.77 5.56-1.77v-.74l-3.93-1.18 4.07-.83c.57-.33.57-1.08.57-1.08-.48.66-5.82 1.37-6 1.7v.5l3.68 1.2s-3.42.96-3.68 1.21c-.27.26-.27.99-.27.99z"/><path fill-rule="evenodd" d="M3.15 34.79c0 .35 0 .93.3 1.25.49.19 4.34 1.5 4.34 1.5s-4.06 1.09-4.34 1.39c-.3.32-.3 1.2-.3 1.2.3-1.08 6.13-2.09 6.13-2.09v-.9s-5.76-1.63-6.13-2.35z"/><path stroke="#333455" stroke-miterlimit="3.86" stroke-width=".14" d="M3.15 34.79c0 .35 0 .93.3 1.25.49.19 4.34 1.5 4.34 1.5s-4.06 1.09-4.34 1.39c-.3.32-.3 1.2-.3 1.2.3-1.08 6.13-2.09 6.13-2.09v-.9s-5.76-1.63-6.13-2.35z"/><path fill-rule="evenodd" d="M18.04 12.24c-.98-1.18-1.1-2.4-2.6-7.02-.4-.67-1.04-.57-1.04-.57.67.52 2.28 7.01 2.6 7.18.23.29.46.36 1.04.41z"/><path stroke="#333455" stroke-miterlimit="3.86" stroke-width=".14" d="M18.04 12.24c-.98-1.18-1.1-2.4-2.6-7.02-.4-.67-1.04-.57-1.04-.57.67.52 2.28 7.01 2.6 7.18.23.29.46.36 1.04.41z"/><path fill-rule="evenodd" d="M23.71 4.71c.71.32 2.65 7.31 2.94 7.52h.54s2.4-6.09 2.93-6.56c-.5.04-.61.04-.93.32l-2.22 5.24-2.05-5.91c-.32-.58-1.21-.61-1.21-.61z"/><path stroke="#333455" stroke-miterlimit="3.86" stroke-width=".14" d="M23.71 4.71c.71.32 2.65 7.31 2.94 7.52h.54s2.4-6.09 2.93-6.56c-.5.04-.61.04-.93.32l-2.22 5.24-2.05-5.91c-.32-.58-1.21-.61-1.21-.61z"/><path fill-rule="evenodd" d="M44.47 4.17c.57.61 1.43 7.85 1.72 8.06h.44l1.07-5.04s.79 4.72 1.01 5.04h.5c.82-4.11 1-6.02 1.79-6.59-.18-.07-.65.03-.9.32-.39.43-1.07 4.52-1.07 4.52l-.97-5.02h-.64l-1.05 5.09-.97-5.66c-.28-.72-.93-.72-.93-.72z"/><path stroke="#333455" stroke-miterlimit="3.86" stroke-width=".14" d="M44.47 4.17c.57.61 1.43 7.85 1.72 8.06h.44l1.07-5.04s.79 4.72 1.01 5.04h.5c.82-4.11 1-6.02 1.79-6.59-.18-.07-.65.03-.9.32-.39.43-1.07 4.52-1.07 4.52l-.97-5.02h-.64l-1.05 5.09-.97-5.66c-.28-.72-.93-.72-.93-.72z"/><path fill-rule="evenodd" d="M40.36 12.23c-.79-.68-1.69-6.45-1.69-6.45l-.72.04-1.64 5.12-1.22-6.05c-.29-.72-.93-.72-.93-.72.57.61 1.43 7.85 1.72 8.06h.43l1.93-5.08s.9 4.51 1.11 4.83c.22 0 1.01.25 1.01.25z"/><path stroke="#333455" stroke-miterlimit="3.86" stroke-width=".07" d="M40.36 12.23c-.79-.68-1.69-6.45-1.69-6.45l-.72.04-1.64 5.12-1.22-6.05c-.29-.72-.93-.72-.93-.72.57.61 1.43 7.85 1.72 8.06h.43l1.93-5.08s.9 4.51 1.11 4.83c.22 0 1.01.25 1.01.25z"/><path fill-rule="evenodd" d="M40.36 12.23c-.79-.68-1.69-6.45-1.69-6.45l-.72.04-1.64 5.12-1.22-6.05c-.29-.72-.93-.72-.93-.72.57.61 1.43 7.85 1.72 8.06h.43l1.93-5.08s.97 4.51 1.18 4.83c.33.11.94.25.94.25z"/><path stroke="#333455" stroke-miterlimit="3.86" stroke-width=".14" d="M40.36 12.23c-.79-.68-1.69-6.45-1.69-6.45l-.72.04-1.64 5.12-1.22-6.05c-.29-.72-.93-.72-.93-.72.57.61 1.43 7.85 1.72 8.06h.43l1.93-5.08s.97 4.51 1.18 4.83c.33.11.94.25.94.25z"/><text x="-212.56" y="265.92" stroke-width=".33" font-family="DejaVuSans" font-size="2.71" font-weight="400" style="-inkscape-font-specification:DejaVuSans" transform="matrix(.948 0 0 1.055 248.31 -212.82)"><tspan x="-212.56" y="266.92">19</tspan></text></svg>